<mxfile host="app.diagrams.net" modified="2024-05-16T20:35:51.980Z" agent="Mozilla/5.0 (Macintosh; Intel Mac OS X 10_15_7) AppleWebKit/605.1.15 (KHTML, like Gecko) Version/17.4.1 Safari/605.1.15" version="24.4.0" etag="paizVtEbSjPF-ucyY8el" type="github">
  <diagram name="Page-1" id="k4ipFRS505ysFbl_5GL6">
    <mxGraphModel>
      <root>
        <mxCell id="0" />
        <mxCell id="1" parent="0" />
      </root>
    </mxGraphModel>
  </diagram>
</mxfile>
